<svg width="80" height="80" viewBox="0 0 80 80" fill="none" xmlns="http://www.w3.org/2000/svg">
<g clip-path="url(#clip0_3_687)">
<path d="M78.6667 77.3333H72V8H74.6667C75.4667 8 76 7.46672 76 6.66672V1.33328C76 0.533281 75.4667 0 74.6667 0H5.33328C4.53328 0 4 0.533281 4 1.33328V6.66656C4 7.46656 4.53328 7.99984 5.33328 7.99984H8V77.3331H1.33328C0.533281 77.3331 0 77.8664 0 78.6664C0 79.4664 0.533281 80 1.33328 80H9.33328H32H48H70.6667H78.6667C79.4667 80 80 79.4667 80 78.6667C80 77.8667 79.4667 77.3333 78.6667 77.3333ZM6.66672 2.66672H73.3334V5.33344H70.6667H9.33328H6.66672V2.66672ZM33.3333 77.3333V56H38.6666V77.3333H33.3333ZM41.3333 77.3333V56H46.6666V77.3333H41.3333ZM49.3333 77.3333V54.6667C49.3333 53.8667 48.8 53.3334 48 53.3334H32C31.2 53.3334 30.6667 53.8667 30.6667 54.6667V77.3334H10.6667V8H69.3334V77.3333H49.3333Z" fill="#EE8023"/>
<path d="M35.9996 13.3335H25.3329H14.6663C13.8663 13.3335 13.333 13.8668 13.333 14.6668V25.3335C13.333 26.1335 13.8663 26.6668 14.6663 26.6668H25.333H35.9996C36.7996 26.6668 37.3329 26.1335 37.3329 25.3335V14.6669C37.3329 13.8669 36.7996 13.3335 35.9996 13.3335ZM15.9996 16.0002H23.9996V24.0002H15.9996V16.0002ZM34.6663 24.0002H26.6663V16.0002H34.6663V24.0002Z" fill="#EE8023"/>
<path d="M26.6663 53.3335H14.6663C13.8663 53.3335 13.333 53.8668 13.333 54.6668V65.3335C13.333 66.1335 13.8663 66.6668 14.6663 66.6668H26.6663C27.4663 66.6668 27.9996 66.1335 27.9996 65.3335V54.6668C27.9996 53.8669 27.4663 53.3335 26.6663 53.3335ZM25.3329 64.0002H15.9996V56.0002H25.3329V64.0002Z" fill="#EE8023"/>
<path d="M65.3333 53.3335H53.3333C52.5333 53.3335 52 53.8668 52 54.6668V65.3335C52 66.1335 52.5333 66.6668 53.3333 66.6668H65.3333C66.1333 66.6668 66.6666 66.1335 66.6666 65.3335V54.6668C66.6667 53.8669 66.1333 53.3335 65.3333 53.3335ZM64 64.0002H54.6667V56.0002H64V64.0002Z" fill="#EE8023"/>
<path d="M65.3336 13.3335H54.6668H44.0003C43.2003 13.3335 42.667 13.8668 42.667 14.6668V25.3335C42.667 26.1335 43.2003 26.6668 44.0003 26.6668H54.667H65.3337C66.1337 26.6668 66.667 26.1335 66.667 25.3335V14.6669C66.667 13.8669 66.1336 13.3335 65.3336 13.3335ZM45.3336 16.0002H53.3336V24.0002H45.3336V16.0002ZM64.0003 24.0002H56.0003V16.0002H64.0003V24.0002Z" fill="#EE8023"/>
<path d="M35.9996 32H25.3329H14.6663C13.8663 32 13.333 32.5333 13.333 33.3333V44C13.333 44.8 13.8663 45.3333 14.6663 45.3333H25.333H35.9996C36.7996 45.3333 37.3329 44.8 37.3329 44V33.3333C37.3329 32.5333 36.7996 32 35.9996 32ZM15.9996 34.6667H23.9996V42.6667H15.9996V34.6667ZM34.6663 42.6667H26.6663V34.6667H34.6663V42.6667Z" fill="#EE8023"/>
<path d="M65.3336 32H54.6668H44.0003C43.2003 32 42.667 32.5333 42.667 33.3333V44C42.667 44.8 43.2003 45.3333 44.0003 45.3333H54.667H65.3337C66.1337 45.3333 66.667 44.8 66.667 44V33.3333C66.667 32.5333 66.1336 32 65.3336 32ZM45.3336 34.6667H53.3336V42.6667H45.3336V34.6667ZM64.0003 42.6667H56.0003V34.6667H64.0003V42.6667Z" fill="#EE8023"/>
</g>
<defs>
<clipPath id="clip0_3_687">
<rect width="80" height="80" fill="white"/>
</clipPath>
</defs>
</svg>
