<svg width="80" height="80" viewBox="0 0 80 80" fill="none" xmlns="http://www.w3.org/2000/svg">
<path d="M78.75 23.7499V16.6761L45.29 2.33486C41.9275 0.894863 38.0737 0.893613 34.71 2.33486L1.25 16.6761V23.7499H8.75V38.7499H3.75V41.2499H6.25V46.2499H1.25V78.7499H78.75V46.2499H73.75V41.2499H76.25V38.7499H71.25V23.7499H78.75ZM43.75 21.2499V18.7499H76.25V21.2499H43.75ZM58.75 46.2499V41.2499H63.75V46.2499H58.75ZM56.25 46.2499H51.25V41.2499H56.25V46.2499ZM48.75 46.2499H43.75V41.2499H48.75V46.2499ZM71.4113 16.2499H43.75V4.42861C43.935 4.49611 44.1237 4.55486 44.305 4.63361L71.4113 16.2499ZM41.25 3.83111V76.2499H38.75V3.83111C39.5812 3.73736 40.4188 3.73736 41.25 3.83111ZM21.25 41.2499V46.2499H16.25V41.2499H21.25ZM23.75 41.2499H28.75V46.2499H23.75V41.2499ZM31.25 41.2499H36.25V46.2499H31.25V41.2499ZM35.6937 4.63361C35.8763 4.55611 36.0638 4.49611 36.25 4.42861V16.2499H8.58875L35.6937 4.63361ZM3.75 18.7499H36.25V21.2499H3.75V18.7499ZM11.25 23.7499H36.25V38.7499H11.25V23.7499ZM8.75 41.2499H13.75V46.2499H8.75V41.2499ZM3.75 48.7499H36.25V76.2499H26.25V63.7499H13.75V76.2499H3.75V48.7499ZM23.75 76.2499H16.25V66.2499H23.75V76.2499ZM63.75 76.2499H56.25V66.2499H63.75V76.2499ZM76.25 76.2499H66.25V63.7499H53.75V76.2499H43.75V48.7499H76.25V76.2499ZM71.25 46.2499H66.25V41.2499H71.25V46.2499ZM68.75 38.7499H43.75V23.7499H68.75V38.7499Z" fill="#EE8023"/>
<path d="M58.75 61.25V51.25H46.25V61.25H58.75ZM48.75 53.75H56.25V58.75H48.75V53.75Z" fill="#EE8023"/>
<path d="M73.75 51.25H61.25V61.25H73.75V51.25ZM71.25 58.75H63.75V53.75H71.25V58.75Z" fill="#EE8023"/>
<path d="M18.75 51.25H6.25V61.25H18.75V51.25ZM16.25 58.75H8.75V53.75H16.25V58.75Z" fill="#EE8023"/>
<path d="M33.75 51.25H21.25V61.25H33.75V51.25ZM31.25 58.75H23.75V53.75H31.25V58.75Z" fill="#EE8023"/>
<path d="M63.75 36.25V26.25H48.75V36.25H63.75ZM51.25 28.75H61.25V33.75H51.25V28.75Z" fill="#EE8023"/>
<path d="M16.25 26.25V36.25H31.25V26.25H16.25ZM28.75 33.75H18.75V28.75H28.75V33.75Z" fill="#EE8023"/>
</svg>
