<svg width="81" height="80" viewBox="0 0 81 80" fill="none" xmlns="http://www.w3.org/2000/svg">
<g clip-path="url(#clip0_3_711)">
<path d="M78.7027 15.7579L68.5 12.2405V5.32848C68.5 3.85566 67.3061 2.66176 65.8333 2.66176H60.5C59.0272 2.66176 57.8333 3.85566 57.8333 5.32848V8.56176L40.9347 2.7352C40.6533 2.63645 40.3467 2.63645 40.0653 2.7352L2.29734 15.7579C1.22172 16.1288 0.499844 17.1413 0.5 18.2791V22.1285C0.499844 22.9905 0.916563 23.7996 1.61844 24.3C2.32031 24.8005 3.22094 24.9308 4.03594 24.6497L5.83328 24.0271V63.995C5.83328 65.4678 7.02719 66.6618 8.5 66.6618H10.2947C9.11687 69.978 10.2445 73.6744 13.0728 75.7686C15.9011 77.8629 19.7656 77.8629 22.5939 75.7686C25.4222 73.6746 26.5498 69.978 25.372 66.6618H28.5V74.6618C28.5 76.1346 29.6939 77.3285 31.1667 77.3285H49.8334C51.3063 77.3285 52.5002 76.1346 52.5002 74.6618V66.6618H55.6281C54.4503 69.978 55.578 73.6744 58.4062 75.7686C61.2345 77.8629 65.0991 77.8629 67.9273 75.7686C70.7556 73.6746 71.8833 69.978 70.7055 66.6618H72.5C73.9728 66.6618 75.1667 65.4678 75.1667 63.995V24.0272L76.9641 24.6458C77.2433 24.7443 77.5372 24.7949 77.8334 24.7952C79.3063 24.7952 80.5002 23.6013 80.5002 22.1285V18.2791C80.5002 17.1413 79.7783 16.1288 78.7027 15.7579ZM60.5 5.32848H65.8333V11.3205L60.5 9.48176V5.32848ZM23.1667 69.3285C23.1667 72.2739 20.7789 74.6618 17.8334 74.6618C14.888 74.6618 12.5 72.2741 12.5 69.3285C12.4997 68.3908 12.75 67.47 13.2253 66.6618H22.4412C22.9166 67.4702 23.167 68.3908 23.1667 69.3285ZM48.5 63.9952H32.5V35.9952C32.5 35.2588 33.0969 34.6619 33.8333 34.6619H47.1666C47.903 34.6619 48.4998 35.2589 48.4998 35.9952V63.9952H48.5ZM31.1667 74.6619V71.9952H49.8334V74.6619H31.1667ZM49.8333 69.3285H31.1667V66.6618H49.8334V69.3285H49.8333ZM68.5 69.3285C68.5 72.2739 66.1122 74.6618 63.1667 74.6618C60.2212 74.6618 57.8334 72.2739 57.8334 69.3285C57.8331 68.3908 58.0834 67.47 58.5587 66.6618H67.7747C68.25 67.4702 68.5003 68.3908 68.5 69.3285ZM72.5 63.9952H51.1667V35.9952C51.1667 33.7861 49.3758 31.9952 47.1667 31.9952H33.8334C31.6244 31.9952 29.8334 33.7861 29.8334 35.9952V63.9952H8.5V23.1072L40.5 12.0725L72.5 23.1072V63.9952ZM77.8333 22.1285L40.9347 9.40176C40.6533 9.30301 40.3467 9.30301 40.0653 9.40176L3.16672 22.1285V18.2791L40.5 5.40582L77.8333 18.2791V22.1285Z" fill="#EE8023"/>
<path d="M24.5004 31.9951H13.8337C12.3609 31.9951 11.167 33.189 11.167 34.6618V47.9951C11.167 49.4679 12.3609 50.6618 13.8337 50.6618H24.5004C25.9732 50.6618 27.1672 49.4679 27.1672 47.9951V34.6618C27.1672 33.189 25.9732 31.9951 24.5004 31.9951ZM24.5004 47.9951H13.8337V34.6618H24.5004V47.9951Z" fill="#EE8023"/>
<path d="M56.4997 50.6618H67.1664C68.6393 50.6618 69.8332 49.4679 69.8332 47.9951V34.6618C69.8332 33.189 68.6393 31.9951 67.1664 31.9951H56.4997C55.0269 31.9951 53.833 33.189 53.833 34.6618V47.9951C53.833 49.4679 55.0269 50.6618 56.4997 50.6618ZM56.4997 34.6618H67.1664V47.9951H56.4997V34.6618Z" fill="#EE8023"/>
<path fill-rule="evenodd" clip-rule="evenodd" d="M45.8333 47.9951C45.0969 47.9951 44.5 48.592 44.5 49.3284V51.9951C44.5 52.7315 45.097 53.3284 45.8333 53.3284C46.5697 53.3284 47.1666 52.7314 47.1666 51.9951V49.3284C47.1667 48.592 46.5697 47.9951 45.8333 47.9951Z" fill="#EE8023"/>
</g>
<defs>
<clipPath id="clip0_3_711">
<rect width="80" height="80" fill="white" transform="translate(0.5)"/>
</clipPath>
</defs>
</svg>
